# xmcd CD database file
#
# Track frame offsets:
#	150
#	19157
#	34712
#	52042
#	68198
#	85205
#	99627
#	123252
#	139420
#	158747
#	176415
#	194535
#
# Disc length: 2873 seconds
#
# Revision: 3
# Processed by: cddbd v1.5.2PL0 Copyright (c) Steve Scherf et al.
# Submitted via: CDex 1.51
#
DISCID=a40b370c
DTITLE=Brantley Gilbert - Halfway To Heaven
DYEAR=2011
DGENRE=Country
TTITLE0=Hell On Wheels
TTITLE1=Bending The Rules And Breaking The Law
TTITLE2=Back In The Day
TTITLE3=My Kind Of Crazy
TTITLE4=Kick It In The Sticks
TTITLE5=Halfway To Heaven
TTITLE6=Saving Amy
TTITLE7=Country Must Be Country Wide
TTITLE8=Take It Outside
TTITLE9=Them Boys
TTITLE10=Fall Into Me
TTITLE11=Dirt Road Anthem (Revisited) (Feat. Colt Ford)
EXTD=YEAR: 2011
EXTT0=
EXTT1=
EXTT2=
EXTT3=
EXTT4=
EXTT5=
EXTT6=
EXTT7=
EXTT8=
EXTT9=
EXTT10=
EXTT11=
PLAYORDER=
